HIERARCHY
ROOT Hips
{
	OFFSET 0.00000 0.00000 0.00000
	CHANNELS 6 Xposition Yposition Zposition Zrotation Yrotation Xrotation 
	JOINT RightUpLegDummy
	{
		OFFSET 0 0 0
		CHANNELS 3 Zrotation Yrotation Xrotation
		JOINT RightUpLeg
		{
			OFFSET -3.52197 -3.41223 0.04002
			CHANNELS 3 Zrotation Yrotation Xrotation
			JOINT RightLeg
			{
				OFFSET 0.00006 -17.42390 1.60435
				CHANNELS 3 Zrotation Yrotation Xrotation
				JOINT RightFoot
				{
					OFFSET 0.06153 -16.50078 -1.63901
					CHANNELS 3 Zrotation Yrotation Xrotation
					JOINT RightToes
					{
						OFFSET 0.00298 -1.73825 3.34613
						CHANNELS 3 Zrotation Yrotation Xrotation
						End Site
						{
							OFFSET 0.00480 -0.05416 3.85043
						}
					}
				}
			}
		}
	}
	JOINT SpineDummy
	{
		OFFSET 0 0 0
		CHANNELS 3 Zrotation Yrotation Xrotation
		JOINT Spine
		{
			OFFSET 0.00000 4.68130 0.00000
			CHANNELS 3 Zrotation Yrotation Xrotation
			JOINT Spine1
			{
				OFFSET -0.00000 10.10138 0.05002
				CHANNELS 3 Zrotation Yrotation Xrotation
				JOINT HEadDummy
				{
					OFFSET 0 0 0
					CHANNELS 3 Zrotation Yrotation Xrotation
					JOINT Head
					{
						OFFSET -0.00000 3.43865 0.00438
						CHANNELS 3 Zrotation Yrotation Xrotation
						End Site
						{
							OFFSET -0.11417 5.02924 0.98962
						}
					}
				}
				JOINT LeftShoulder1Dummy
				{
					OFFSET 0 0 0
					CHANNELS 3 Zrotation Yrotation Xrotation
					JOINT LeftShoulder1
					{
						OFFSET 3.53937 -0.14262 -0.08662
						CHANNELS 3 Zrotation Yrotation Xrotation
						JOINT LeftArm
						{
							OFFSET 4.04833 -0.00133 0.12681
							CHANNELS 3 Zrotation Yrotation Xrotation
							JOINT LeftForeArm
							{
								OFFSET 10.33880 -0.01036 -0.55515
								CHANNELS 3 Zrotation Yrotation Xrotation
								JOINT LeftHand
								{
									OFFSET 8.69677 0.07543 0.40060
									CHANNELS 3 Zrotation Yrotation Xrotation
									End Site
									{
										OFFSET 5.28377 -0.21905 0.59205
									}
								}
							}
						}
					}
				}
				JOINT RightShoulderDummy
				{
					OFFSET 0 0 0
					CHANNELS 3 Zrotation Yrotation Xrotation
					JOINT RightShoulder
					{
						OFFSET -3.53937 -0.14262 -0.08660
						CHANNELS 3 Zrotation Yrotation Xrotation
						JOINT RightArm
						{
							OFFSET -4.04833 -0.00133 0.12683
							CHANNELS 3 Zrotation Yrotation Xrotation
							JOINT RightForeArm
							{
								OFFSET -10.37987 -0.01039 -0.55511
								CHANNELS 3 Zrotation Yrotation Xrotation
								JOINT RightHand
								{
									OFFSET -8.67398 0.07538 0.40058
									CHANNELS 3 Zrotation Yrotation Xrotation
									End Site
									{
										OFFSET -5.24810 -0.21916 0.59204
									}
								}
							}
						}
					}
				}
			}
		}
	}
	JOINT LeftUpLegDummy
	{
		OFFSET 0 0 0
		CHANNELS 3 Zrotation Yrotation Xrotation
		JOINT LeftUpLeg
		{
			OFFSET 3.52197 -3.41223 0.04002
			CHANNELS 3 Zrotation Yrotation Xrotation
			JOINT LeftLeg
			{
				OFFSET -0.00012 -17.42399 1.60337
				CHANNELS 3 Zrotation Yrotation Xrotation
				JOINT LeftFoot
				{
					OFFSET -0.09972 -16.50070 -1.63802
					CHANNELS 3 Zrotation Yrotation Xrotation
					JOINT LeftToes
					{
						OFFSET -0.01575 -1.73823 3.34611
						CHANNELS 3 Zrotation Yrotation Xrotation
						End Site
						{
							OFFSET 0.03150 -0.01868 3.85031
						}
					}
				}
			}
		}
	}
}
MOTION
Frames: 9
Frame Time: 0.033333
18.4170 39.2547 36.2475 -178.2080 32.5966 173.9320 0.0000 0.0000 0.0000 -3.0143 -2.5724 -13.1859 0.3594 4.6178 -2.3086 9.6887 -0.4903 -5.8623 0.0000 -0.0000 -0.0000 0.0000 0.0000 0.0000 -0.3792 1.2458 7.8948 4.3862 0.4417 -0.2380 -0.0000 0.0000 -0.0000 -4.7405 20.9010 -2.6167 -0.0000 0.0000 -0.0000 -33.7856 -2.6253 2.4402 -45.0752 -22.8734 -11.7303 -12.3896 1.7888 35.9766 12.8600 -4.9192 -1.1031 -0.0000 0.0000 -0.0000 35.4867 5.3080 3.6586 39.8518 -1.4424 -19.8199 10.0068 -0.2288 19.5304 -13.0784 1.3081 -0.7441 0.0000 0.0000 0.0000 2.5144 5.1850 16.8665 -3.6352 -4.1242 10.6460 2.7256 0.1240 -13.2231 0.0000 0.0000 -0.0000
19.4502 39.1763 35.5203 -178.8130 31.5221 173.5880 0.0000 0.0000 0.0000 -2.6745 -2.2670 -12.5953 0.0357 3.5043 -1.1890 7.9395 -0.3888 -5.9774 0.0000 -0.0000 -0.0000 0.0000 0.0000 0.0000 -1.0116 1.2336 7.2793 4.6207 0.3787 -0.0696 -0.0000 0.0000 -0.0000 -4.3271 19.9456 -1.6274 -0.0000 0.0000 -0.0000 -33.7141 -2.5826 2.4188 -44.6862 -21.7823 -13.7217 -11.8536 4.8407 37.3701 13.5457 -4.0876 -1.0745 -0.0000 0.0000 -0.0000 35.4309 5.2982 3.6495 40.3514 -1.4372 -19.6035 10.0599 0.4269 19.1787 -12.9205 1.4156 -0.7461 0.0000 0.0000 0.0000 3.6035 5.9913 18.6375 -4.0604 -6.5765 10.8017 1.1664 0.0964 -13.0526 0.0000 0.0000 -0.0000
20.5349 39.1307 34.7480 -179.2200 30.2300 173.4220 0.0000 0.0000 0.0000 -2.2453 -2.0081 -11.9296 -0.3876 1.3027 0.6536 5.4264 -0.3981 -3.1608 0.0000 -0.0000 -0.0000 0.0000 0.0000 0.0000 -1.3640 1.2181 6.2918 4.7064 0.3514 0.2743 -0.0000 0.0000 -0.0000 -3.9837 18.8719 -0.8953 -0.0000 0.0000 -0.0000 -34.1497 -2.7124 2.4979 -43.6315 -20.1086 -16.0291 -11.1054 5.4071 39.7606 13.5002 -3.6393 -1.0217 -0.0000 0.0000 -0.0000 35.4269 5.2910 3.6461 40.8292 -1.5231 -19.5364 10.0814 0.8030 19.1473 -13.0682 1.7060 -0.7855 0.0000 0.0000 0.0000 5.0569 7.1494 20.1468 -4.3624 -9.7394 11.3896 -0.2067 0.0716 -12.1239 0.0000 0.0000 -0.0000
21.5850 39.0730 33.9485 -179.0050 29.0335 173.5760 0.0000 0.0000 0.0000 -1.8348 -2.1818 -11.4537 -0.2551 -0.3851 2.7484 5.5354 -0.6138 1.1603 0.0000 -0.0000 -0.0000 0.0000 0.0000 0.0000 -0.4644 1.2249 5.3522 4.0346 0.4930 0.5343 -0.0000 0.0000 -0.0000 -3.8709 18.0626 -0.3760 -0.0000 0.0000 -0.0000 -34.9113 -2.8887 2.6178 -42.1137 -18.0749 -18.6040 -10.1503 5.2866 42.3454 13.0205 -3.6238 -0.9822 -0.0000 0.0000 -0.0000 35.6074 5.3049 3.6681 41.0059 -1.5004 -19.6064 10.0714 0.7426 19.4063 -13.3558 1.8637 -0.8201 0.0000 0.0000 0.0000 6.9547 8.3724 20.6748 -4.6790 -12.4244 13.8658 -1.5019 0.0703 -10.9335 0.0000 0.0000 -0.0000
22.5229 38.9502 33.1880 -178.2050 28.4782 173.8180 0.0000 0.0000 0.0000 -1.2783 -2.5958 -11.3472 0.4336 -1.1331 5.7069 8.3847 -1.0906 3.7121 0.0000 -0.0000 -0.0000 0.0000 0.0000 0.0000 1.8092 1.4120 5.0687 2.5294 0.9547 0.4572 -0.0000 0.0000 -0.0000 -3.9689 17.3723 0.1036 -0.0000 0.0000 -0.0000 -35.1461 -2.8864 2.6322 -41.2892 -15.8905 -21.1897 -9.0060 5.2546 44.0939 13.1419 -3.4160 -0.9693 -0.0000 0.0000 -0.0000 35.7272 5.3168 3.6839 40.9223 -0.9761 -19.9076 9.9322 0.0884 20.0748 -13.3288 1.6890 -0.7998 0.0000 0.0000 0.0000 8.8267 8.6305 19.8400 -5.3038 -12.5276 19.0371 -3.1945 0.1017 -9.8415 0.0000 0.0000 -0.0000
23.3620 38.8116 32.5284 -177.3360 28.2786 173.8460 0.0000 0.0000 0.0000 -0.4123 -2.8080 -11.2782 1.0022 -1.2432 9.2824 10.0918 -1.3037 3.4921 0.0000 -0.0000 -0.0000 0.0000 0.0000 0.0000 4.0036 1.6806 5.6599 1.2782 1.4552 -0.0306 -0.0000 0.0000 -0.0000 -4.1208 16.3395 0.7832 -0.0000 0.0000 -0.0000 -34.5686 -2.7391 2.5350 -41.7262 -13.5461 -23.3451 -7.9413 5.2608 44.2675 13.7220 -2.6612 -0.9301 -0.0000 0.0000 -0.0000 35.4618 5.2849 3.6468 40.7354 0.1795 -20.2857 9.6956 -0.8580 21.0145 -13.0581 1.4124 -0.7539 0.0000 0.0000 0.0000 10.1598 7.6478 17.7941 -5.7962 -10.0429 26.0407 -4.8633 0.2107 -7.4966 0.0000 0.0000 -0.0000
24.1397 38.7041 31.9975 -176.8710 27.5950 173.5480 0.0000 0.0000 0.0000 0.5509 -2.8132 -11.1134 1.0914 -1.3111 12.8236 7.9916 -0.9335 2.0174 0.0000 -0.0000 -0.0000 0.0000 0.0000 0.0000 4.7865 1.7952 6.7786 1.1723 1.6218 -0.7390 -0.0000 0.0000 -0.0000 -4.2378 15.3573 1.7274 -0.0000 0.0000 -0.0000 -33.8065 -2.6778 2.4622 -42.6497 -11.3002 -24.8084 -7.2388 5.2845 43.6107 13.4870 -1.8059 -0.8216 -0.0000 0.0000 -0.0000 34.9593 5.2198 3.5751 40.3126 1.5740 -20.2436 9.6262 -1.3071 21.4828 -13.0110 1.2854 -0.7378 0.0000 0.0000 0.0000 10.7218 6.2084 14.5193 -5.2830 -6.8495 34.0940 -5.2591 0.4146 -2.5297 0.0000 0.0000 -0.0000
24.8669 38.6172 31.5406 -176.8420 26.1472 173.0350 0.0000 0.0000 0.0000 1.1757 -2.7182 -10.8329 0.7991 -2.1922 15.8671 3.8108 -0.3964 0.5947 0.0000 -0.0000 -0.0000 0.0000 0.0000 0.0000 4.5301 1.7407 7.8652 1.6699 1.5183 -1.3011 -0.0000 0.0000 -0.0000 -4.1721 14.1940 2.7650 -0.0000 0.0000 -0.0000 -33.4241 -2.7714 2.4754 -43.0542 -9.7977 -25.6211 -6.8345 5.2782 43.9853 12.1641 -1.4495 -0.7029 -0.0000 0.0000 -0.0000 34.7037 5.1766 3.5348 39.4005 2.6809 -19.5586 9.8806 -0.7033 20.8979 -13.2561 1.2686 -0.7502 0.0000 0.0000 0.0000 10.3815 4.1247 10.3834 -3.3229 -3.4073 42.0761 -4.1234 0.5168 3.6875 0.0000 0.0000 -0.0000
25.5414 38.5471 31.0637 -177.0120 24.6249 172.4990 0.0000 0.0000 0.0000 1.4955 -2.7366 -10.3011 0.2702 -3.4752 18.2519 0.6606 -0.0626 -0.8649 0.0000 -0.0000 -0.0000 0.0000 0.0000 0.0000 4.4592 1.7556 8.6104 1.6739 1.5596 -1.5176 -0.0000 0.0000 -0.0000 -3.9446 12.6879 3.7676 -0.0000 0.0000 -0.0000 -33.3683 -2.8397 2.4987 -42.8560 -9.2323 -25.8951 -6.5911 5.2263 46.0039 11.0928 -1.7473 -0.6659 -0.0000 0.0000 -0.0000 34.8019 5.1759 3.5432 38.1633 3.4228 -18.7408 10.2202 0.6267 19.6780 -13.5266 1.2666 -0.7656 0.0000 0.0000 0.0000 9.5464 2.3877 6.2429 -0.1475 -0.4295 48.8568 -2.2093 0.3211 7.2420 0.0000 0.0000 -0.0000
